<?xml version="1.0" encoding="UTF-8" standalone="no"?>
<svg
   width="512"
   height="512"
   viewBox="0 0 512 512"
   version="1.1"
   xmlns="http://www.w3.org/2000/svg">
  <rect
     style="fill:#1a1a1a;stroke-width:1.00375"
     width="512"
     height="512"
     x="0"
     y="0"
     rx="80"
     ry="80" />
  <g transform="matrix(15,0,0,15,106,106)">
    <path
       d="M 16,3.5 C 16,4.328 15.328,5 14.5,5 H 3.5 C 2.672,5 2,4.328 2,3.5 2,2.672 2.672,2 3.5,2 h 11 c 0.828,0 1.5,0.672 1.5,1.5 z"
       fill="#ffffff"
       />
    <path
       d="M 14.5,7 H 7.5 C 6.672,7 6,7.672 6,8.5 6,9.328 6.672,10 7.5,10 h 7 c 0.828,0 1.5,-0.672 1.5,-1.5 C 16,7.672 15.328,7 14.5,7 Z"
       fill="#ffffff"
       />
    <path
       d="M 14.5,12 H 3.5 C 2.672,12 2,12.672 2,13.5 2,14.328 2.672,15 3.5,15 h 11 c 0.828,0 1.5,-0.672 1.5,-1.5 0,-0.828 -0.672,-1.5 -1.5,-1.5 z"
       fill="#ffffff"
       />
    <path
       d="m 4.5,11 c 0.828,0 1.5,-0.672 1.5,-1.5 v -5 C 6,3.672 5.328,3 4.5,3 3.672,3 3,3.672 3,4.5 v 5 C 3,10.328 3.672,11 4.5,11 Z"
       fill="#ffffff"
       />
  </g>
</svg>